# xmcd CD database file
#
# Track frame offsets:
#	150
#	31057
#	70217
#	77457
#	101940
#	123060
#	156340
#
# Disc length: 2757 seconds
#
# Revision: 3
# Processed by: cddbd v1.5.2PL0 Copyright (c) Steve Scherf et al.
# Submitted via: CDex 1.51
#
DISCID=4e0ac307
DTITLE=Vangelis PAPATHANASSIOU and Irene PAPAS - Rapsodies
DYEAR=1986
DGENRE=New Age
TTITLE0=Ti ipermacho stratigo
TTITLE1=O! Gliki mou ear
TTITLE2=Ton nimfona sou vlepo
TTITLE3=Rapsodia
TTITLE4=Tin oreotita tis parthenias sou
TTITLE5=Christos anesti
TTITLE6=Asma Asmaton
EXTD=YEAR: 1986
EXTT0=
EXTT1=
EXTT2=
EXTT3=
EXTT4=
EXTT5=
EXTT6=
PLAYORDER=
